# AST/ASF file generated using VICON BodyLanguage
# -----------------------------------------------
:version 1.10
:name VICON
:units
  mass 1.0
  length 0.45
  angle deg
:documentation
   .ast/.asf automatically generated from VICON data using
   VICON BodyBuilder and BodyLanguage model FoxedUp or BRILLIANT.MOD
:root
   order TX TY TZ RX RY RZ
   axis XYZ
   position 0 0 0  
   orientation 0 0 0 
:bonedata
  begin
     id 1 
     name lhipjoint
     direction 0.606768 -0.715223 0.346827 
     length 2.41543 
     axis 0 0 0  XYZ
  end
  begin
     id 2 
     name lfemur
     direction 0.34202 -0.939693 0  
     length 7.2778  
     axis 0 0 20  XYZ
    dof rx ry rz
    limits (-160.0 20.0)
           (-70.0 70.0)
           (-60.0 70.0)
  end
  begin
     id 3 
     name ltibia
     direction 0.34202 -0.939693 0   
     length 7.61811   
     axis 0 0 20   XYZ
    dof rx
    limits (-10.0 170.0)
  end
  begin
     id 4 
     name lfoot
     direction 0.0823924 -0.226371 0.97055   
     length 2.33618   
     axis -90 7.62852e-016 20   XYZ
    dof rx rz
    limits (-45.0 90.0)
           (-70.0 20.0)
  end
  begin
     id 5 
     name ltoes
     direction 1.53554e-011 -4.21934e-011 1   
     length 1.17015   
     axis -90 7.62852e-016 20   XYZ
    dof rx
    limits (-90.0 20.0)
  end
  begin
     id 6 
     name rhipjoint
     direction -0.6077 -0.714582 0.346516   
     length 2.4176  
     axis 0 0 0  XYZ 
  end
  begin
     id 7 
     name rfemur
     direction -0.34202 -0.939693 0   
     length 7.28127   
     axis 0 0 -20   XYZ
    dof rx ry rz
    limits (-160.0 20.0)
           (-70.0 70.0)
           (-70.0 60.0)
  end
  begin
     id 8 
     name rtibia
     direction -0.34202 -0.939693 0   
     length 7.77648   
     axis 0 0 -20   XYZ
    dof rx
    limits (-10.0 170.0)
 end
 begin
     id 9 
     name rfoot
     direction -0.0809463 -0.222398 0.97159   
     length 2.37533  
     axis -90 -7.62852e-016 -20   XYZ
    dof rx rz
    limits (-45.0 90.0)
           (-20.0 70.0)
  end
  begin
     id 10 
     name rtoes
     direction -1.53568e-011 -4.21714e-011 1   
     length 1.18972   
     axis -90 -7.62852e-016 -20   XYZ
    dof rx
    limits (-90.0 20.0)
  end
  begin
     id 11 
     name lowerback
     direction 0.010968 0.991932 -0.126297   
     length 2.21698   
     axis 0 0 0   XYZ
    dof rx ry rz
    limits (-20.0 45.0)
           (-30.0 30.0)
           (-30.0 30.0)
  end
  begin
     id 12 
     name upperback
     direction 0.0167007 0.997503 -0.0686276   
     length 2.22371   
     axis 0 0 0   XYZ
    dof rx ry rz
    limits (-20.0 45.0)
           (-30.0 30.0)
           (-30.0 30.0)
  end
  begin
     id 13 
     name thorax
     direction 0.0111721 0.999885 -0.0102878   
     length 2.25242   
     axis 0 0 0   XYZ
    dof rx ry rz
    limits (-20.0 45.0)
           (-30.0 30.0)
           (-30.0 30.0)
  end
  begin
     id 14 
     name lowerneck
     direction -0.0120265 0.990428 0.137508   
     length 1.57674   
     axis 0 0 0   XYZ
    dof rx ry rz
    limits (-20.0 45.0)
           (-30.0 30.0)
           (-30.0 30.0)
  end
  begin
     id 15 
     name upperneck
     direction 0.0175669 0.998907 0.0433089   
     length 1.5618   
     axis 0 0 0   XYZ
    dof rx ry rz
    limits (-20.0 45.0)
           (-30.0 30.0)
           (-30.0 30.0)
  end
  begin
     id 16
     name head
     direction 0.00754609 0.99997 0.00185367  
     length 1.60579  
     axis 0 0 0   XYZ
    dof rx ry rz
    limits (-20.0 45.0)
           (-30.0 30.0)
           (-30.0 30.0)
  end
  begin
     id 17 
     name lclavicle
     direction 0.885866 0.429166 -0.176231  
     length 3.44967  
     axis 0 0 0   XYZ
    dof ry rz
    limits (-20.0 10.0)
           (0.0 20.0)
  end
  begin
     id 18 
     name lhumerus
     direction 1 -4.48973e-011 -1.90255e-027   
     length 5.20607   
     axis 180 -30 -90   XYZ
    dof rx ry rz
    limits (-60.0 90.0)
           (-90.0 90.0)
           (-90.0 90.0)
  end
  begin
     id 19
     name lradius
     direction 1 -4.48956e-011 9.87925e-027   
     length 3.39961   
     axis 180 -30 -90   XYZ
    dof rx
    limits (-10.0 170.0)
  end
  begin
     id 20
     name lwrist
     direction 1 -4.48985e-011 1.73247e-026   
     length 1.6998   
     axis -9.60847e-015 90 90   XYZ
    dof ry
    limits (-180.0 0.0)
 end
  begin
     id 21 
     name lhand
     direction 1 -4.48798e-011 3.46119e-026   
     length 0.519693   
     axis -2.21073e-014 90 90   XYZ
    dof rx rz
    limits (-90.0 90.0)
           (-45.0 45.0)
  end
  begin
     id 22 
     name lfingers
     direction 1 -4.48938e-011 6.92797e-026   
     length 0.41899   
     axis -4.42155e-014 90 90   XYZ
    dof rx
    limits (0.0 90.0)
  end
  begin
     id 23
     name lthumb
     direction 0.707107 -6.34952e-011 0.707107   
     length 0.601588   
     axis -90 45 6.0103e-014   XYZ
    dof rx rz
    limits (-45.0 45.0)
           (-45.0 45.0)
  end
  begin
     id 24 
     name rclavicle
     direction -0.866736 0.456792 -0.200276   
     length 3.45032  
     axis 0 0 0   XYZ 
    dof ry rz
    limits (-10.0 20.0)
           (-20.0 0.0)
  end
  begin
     id 25 
     name rhumerus
     direction -1 -4.4897e-011 8.65094e-028  
     length 5.32214   
     axis 180 30 90   XYZ
    dof rx ry rz
    limits (-90.0 60.0)
           (-90.0 90.0)
           (-90.0 90.0)
  end
  begin
     id 26 
     name rradius
     direction -1 -4.48987e-011 1.08427e-026   
     length 3.51208   
     axis 180 30 90   XYZ
    dof rx
    limits (-10.0 170.0)
  end
  begin
     id 27 
     name rwrist
     direction -1 -4.48961e-011 1.73222e-026   
     length 1.75604   
     axis -9.60847e-015 -90 -90   XYZ
    dof ry
    limits (-180.0 0.0)
  end
  begin
     id 28
     name rhand
     direction -1 -4.48895e-011 3.46314e-026   
     length 0.586681   
     axis -2.21073e-014 -90 -90   XYZ
    dof rx rz
    limits (-90.0 90.0)
           (-45.0 45.0)
  end
  begin
     id 29
     name rfingers
     direction -1 -4.48968e-011 6.92916e-026   
     length 0.472997   
     axis -4.42155e-014 -90 -90   XYZ
    dof rx
    limits (0.0 90.0)
  end
  begin
     id 30
     name rthumb
     direction -0.707107 -6.34848e-011 0.707107   
     length 0.679133   
     axis -90 -45 -6.0103e-014   XYZ
    dof rx rz
    limits (-45.0 45.0)
           (-45.0 45.0)
  end
:hierarchy
  begin
    root lhipjoint rhipjoint lowerback
    lhipjoint lfemur
    lfemur ltibia
    ltibia lfoot
    lfoot ltoes
    rhipjoint rfemur
    rfemur rtibia
    rtibia rfoot
    rfoot rtoes
    lowerback upperback
    upperback thorax
    thorax lowerneck lclavicle rclavicle
    lowerneck upperneck
    upperneck head
    lclavicle lhumerus
    lhumerus lradius
    lradius lwrist
    lwrist lhand lthumb
    lhand lfingers
    rclavicle rhumerus
    rhumerus rradius
    rradius rwrist
    rwrist rhand rthumb
    rhand rfingers
  end

#!OML:ASF H:\Dans Jumps\Project 1\Capture day 1\Session 1\subject.ASF
:FULLY-SPECIFIED
:DEGREES
1
root 0.561624 17.5515 -13.8836 6.2468 -1.7027 -1.33809
lowerback -3.50882 -0.697458 -0.0671996
upperback 2.03605 -1.00315 1.96318
thorax 4.1046 -0.530085 1.9937
lowerneck -14.1022 0.353141 -2.26514
upperneck 20.872 0.9617 0.269676
head 8.84486 0.298044 0.581894
rclavicle 3.03147e-015 -6.75868e-015
rhumerus -25.94 -14.0415 -78.5848
rradius 24.7424
rwrist 31.4251
rhand -19.3283 -26.0108
rfingers 7.12502
rthumb 6.98824 -55.8755
lclavicle 3.03147e-015 -6.75868e-015
lhumerus -22.1263 -3.7912 87.7855
lradius 20.2404
lwrist 4.63397
lhand -23.7571 -3.31565
lfingers 7.12502
lthumb 2.71194 26.6469
rfemur -11.4449 -3.78399 20.098
rtibia 20.3556
rfoot -14.0419 -1.38517
rtoes 13.6059
lfemur -10.6538 7.78052 -18.0611
ltibia 17.8882
lfoot -11.2782 5.34138
ltoes -3.10557
2
root 0.561062 17.5509 -13.8866 6.2473 -1.71376 -1.34786
lowerback -3.5121 -0.697257 -0.039757
upperback 2.04207 -1.00421 1.9566
thorax 4.11212 -0.529806 1.97134
lowerneck -14.0628 0.350862 -2.28111
upperneck 20.8822 0.956024 0.292453
head 8.84096 0.296476 0.591505
rclavicle -1.41634e-014 3.02153e-014
rhumerus -25.9337 -14.0741 -78.5852
rradius 24.7679
rwrist 31.4051
rhand -19.3058 -26.0285
rfingers 7.12502
rthumb 7.00999 -55.8925
lclavicle -1.41634e-014 3.02153e-014
lhumerus -22.1141 -3.712 87.7427
lradius 20.1789
lwrist 4.54177
lhand -23.7136 -3.23843
lfingers 7.12502
lthumb 2.75391 26.7235
rfemur -11.4587 -3.77859 20.111
rtibia 20.3551
rfoot -14.0475 -1.37634
rtoes 13.7062
lfemur -10.6718 7.74133 -18.0518
ltibia 17.9072
lfoot -11.2743 5.40933
ltoes -2.83723
3
root 0.560076 17.5504 -13.8895 6.24768 -1.71154 -1.34912
lowerback -3.5084 -0.700324 -0.0424934
upperback 2.0615 -1.00874 1.96338
thorax 4.13054 -0.532414 1.97957
lowerneck -14.1272 0.351491 -2.26331
upperneck 20.9473 0.961092 0.265706
head 8.87534 0.296664 0.580651
rclavicle -8.00108e-015 2.46493e-014
rhumerus -25.8835 -14.0913 -78.5726
rradius 24.7776
rwrist 31.3998
rhand -19.2925 -26.1161
rfingers 7.12502
rthumb 7.02283 -55.9796
lclavicle -8.00108e-015 2.46493e-014
lhumerus -22.0871 -3.63324 87.7344
lradius 20.1059
lwrist 4.49406
lhand -23.7926 -3.36536
lfingers 7.12502
lthumb 2.67765 26.5976
rfemur -11.469 -3.78469 20.1185
rtibia 20.3548
rfoot -14.0314 -1.38859
rtoes 13.5558
lfemur -10.6905 7.73058 -18.0511
ltibia 17.9257
lfoot -11.2692 5.43925
ltoes -2.45877
4
root 0.5597 17.5502 -13.8924 6.24621 -1.72922 -1.37017
lowerback -3.49932 -0.697106 -0.016261
upperback 2.06596 -1.00598 1.9678
thorax 4.12955 -0.530393 1.96967
lowerneck -14.156 0.325187 -2.36479
upperneck 21.0164 0.924856 0.375354
head 8.9037 0.282644 0.631093
rclavicle 4.17448e-015 1.23246e-014
rhumerus -25.8701 -14.0953 -78.568
rradius 24.7847
rwrist 31.3921
rhand -19.2973 -26.1779
rfingers 7.12502
rthumb 7.01818 -56.0415
lclavicle 4.17448e-015 1.23246e-014
lhumerus -22.1001 -3.56954 87.7237
lradius 20.0649
lwrist 4.46079
lhand -23.752 -3.29405
lfingers 7.12502
lthumb 2.71688 26.6684
rfemur -11.479 -3.7776 20.1414
rtibia 20.3537
rfoot -14.0285 -1.36458
rtoes 13.6347
lfemur -10.7033 7.68211 -18.0304
ltibia 17.9458
lfoot -11.26 5.523
ltoes -2.37848
5
root 0.559137 17.5498 -13.8952 6.24355 -1.74047 -1.38379
lowerback -3.48854 -0.695348 0.000986366
upperback 2.07195 -1.00466 1.97135
thorax 4.12937 -0.529343 1.96384
lowerneck -14.1742 0.315121 -2.39849
upperneck 21.0653 0.911744 0.410173
head 8.92369 0.277038 0.647366
rclavicle -1.21259e-014 -1.07344e-014
rhumerus -25.8536 -14.1175 -78.5559
rradius 24.7891
rwrist 31.3951
rhand -19.2966 -26.2413
rfingers 7.12502
rthumb 7.01883 -56.105
lclavicle -1.21259e-014 -1.07344e-014
lhumerus -22.1091 -3.51709 87.7171
lradius 20.019
lwrist 4.42726
lhand -23.7531 -3.29281
lfingers 7.12502
lthumb 2.71581 26.6696
rfemur -11.4883 -3.77531 20.1585
rtibia 20.354
rfoot -14.0217 -1.35487
rtoes 13.6295
lfemur -10.7167 7.65352 -18.0167
ltibia 17.9655
lfoot -11.2642 5.57631
ltoes -2.21015
6
root 0.558555 17.5494 -13.8979 6.23984 -1.75465 -1.39932
lowerback -3.47551 -0.692184 0.0176231
upperback 2.07778 -1.00145 1.97596
thorax 4.12772 -0.527374 1.95961
lowerneck -14.1917 0.305827 -2.42902
upperneck 21.1094 0.89971 0.441398
head 8.94194 0.271857 0.661992
rclavicle -6.70898e-015 -1.63003e-014
rhumerus -25.8377 -14.1452 -78.5402
rradius 24.788
rwrist 31.4065
rhand -19.297 -26.2944
rfingers 7.12502
rthumb 7.01842 -56.158
lclavicle -6.70898e-015 -1.63003e-014
lhumerus -22.1237 -3.47748 87.7178
lradius 19.979
lwrist 4.4002
lhand -23.753 -3.29701
lfingers 7.12502
lthumb 2.71592 26.6654
rfemur -11.4946 -3.76843 20.1776
rtibia 20.3503
rfoot -14.0113 -1.34755
rtoes 13.6153
lfemur -10.7323 7.6306 -18.0005
ltibia 17.9925
lfoot -11.2782 5.62566
ltoes -2.09535
7
root 0.557951 17.5491 -13.9007 6.23606 -1.77145 -1.41803
lowerback -3.46254 -0.687735 0.0366842
upperback 2.0833 -0.996629 1.98054
thorax 4.12568 -0.524537 1.95408
lowerneck -14.2008 0.297594 -2.45591
upperneck 21.1444 0.888546 0.470114
head 8.95555 0.267203 0.675181
rclavicle -9.74045e-015 -7.55382e-015
rhumerus -25.8237 -14.1833 -78.5213
rradius 24.7803
rwrist 31.4301
rhand -19.2987 -26.3237
rfingers 7.12502
rthumb 7.01677 -56.1874
lclavicle -9.74045e-015 -7.55382e-015
lhumerus -22.1438 -3.45114 87.7232
lradius 19.9461
lwrist 4.37795
lhand -23.7505 -3.30705
lfingers 7.12502
lthumb 2.71834 26.6554
rfemur -11.5022 -3.75796 20.2003
rtibia 20.3487
rfoot -14.0021 -1.34181
rtoes 13.6028
lfemur -10.7477 7.61545 -17.9805
ltibia 18.0195
lfoot -11.2983 5.66955
ltoes -2.02734
8
root 0.55731 17.5487 -13.9033 6.23213 -1.79022 -1.43547
lowerback -3.45141 -0.682793 0.0526411
upperback 2.09023 -0.991011 1.98447
thorax 4.12617 -0.521395 1.94968
lowerneck -14.2068 0.291385 -2.47374
upperneck 21.1724 0.879846 0.4903
head 8.96621 0.263584 0.684192
rclavicle -1.48592e-014 5.56597e-015
rhumerus -25.8087 -14.2276 -78.5004
rradius 24.7672
rwrist 31.4614
rhand -19.3038 -26.3307
rfingers 7.12502
rthumb 7.0119 -56.1946
lclavicle -1.48592e-014 5.56597e-015
lhumerus -22.1657 -3.43237 87.733
lradius 19.9174
lwrist 4.35609
lhand -23.7531 -3.32721
lfingers 7.12502
lthumb 2.7158 26.6352
rfemur -11.5097 -3.74697 20.2219
rtibia 20.3479
rfoot -13.993 -1.33662
rtoes 13.5792
lfemur -10.7632 7.60892 -17.9612
ltibia 18.0481
lfoot -11.3229 5.70624
ltoes -1.98647
9
root 0.556677 17.5484 -13.9058 6.22886 -1.81047 -1.45082
lowerback -3.4429 -0.678277 0.0649816
upperback 2.09764 -0.985792 1.98785
thorax 4.12871 -0.518552 1.94667
lowerneck -14.2103 0.285344 -2.49205
upperneck 21.1994 0.870987 0.512255
head 8.97607 0.260052 0.693853
rclavicle -3.8763e-015 -9.93923e-015
rhumerus -25.7944 -14.2744 -78.478
rradius 24.7509
rwrist 31.4997
rhand -19.3092 -26.3173
rfingers 7.12502
rthumb 7.00665 -56.1813
lclavicle -3.8763e-015 -9.93923e-015
lhumerus -22.1898 -3.41501 87.7458
lradius 19.8922
lwrist 4.33582
lhand -23.7453 -3.33867
lfingers 7.12502
lthumb 2.72335 26.6237
rfemur -11.5188 -3.73708 20.241
rtibia 20.3489
rfoot -13.9849 -1.32971
rtoes 13.5591
lfemur -10.7784 7.60836 -17.9441
ltibia 18.0763
lfoot -11.348 5.73966
ltoes -1.97054
10
root 0.556063 17.5481 -13.9082 6.22709 -1.83173 -1.46309
lowerback -3.43932 -0.674572 0.0732764
upperback 2.10719 -0.981492 1.9898
thorax 4.13634 -0.516286 1.94435
lowerneck -14.2209 0.281112 -2.50155
upperneck 21.2319 0.86435 0.527364
head 8.98922 0.257465 0.700038
rclavicle -1.2424e-015 -2.66371e-014
rhumerus -25.7771 -14.3235 -78.4567
rradius 24.7304
rwrist 31.5443
rhand -19.3223 -26.2855
rfingers 7.12502
rthumb 6.99406 -56.1499
lclavicle -1.2424e-015 -2.66371e-014
lhumerus -22.211 -3.39491 87.7585
lradius 19.8678
lwrist 4.30796
lhand -23.7352 -3.34189
lfingers 7.12502
lthumb 2.73307 26.6203
rfemur -11.5304 -3.73171 20.2566
rtibia 20.3526
rfoot -13.9789 -1.31721
rtoes 13.5492
lfemur -10.7936 7.61136 -17.9303
ltibia 18.1021
lfoot -11.3682 5.77069
ltoes -1.96245
11
root 0.555521 17.5478 -13.9104 6.22659 -1.85347 -1.47096
lowerback -3.43787 -0.671633 0.0777138
upperback 2.11532 -0.977912 1.98917
thorax 4.14374 -0.514437 1.94145
lowerneck -14.2331 0.278092 -2.50418
upperneck 21.2727 0.858409 0.539934
head 9.00551 0.255398 0.704346
rclavicle 3.72721e-015 3.18055e-015
rhumerus -25.7619 -14.3784 -78.4357
rradius 24.7065
rwrist 31.5968
rhand -19.3319 -26.2537
rfingers 7.12502
rthumb 6.98477 -56.1185
lclavicle 3.72721e-015 3.18055e-015
lhumerus -22.2355 -3.37627 87.7715
lradius 19.8457
lwrist 4.27774
lhand -23.7247 -3.34157
lfingers 7.12502
lthumb 2.74325 26.6205
rfemur -11.5446 -3.73311 20.2669
rtibia 20.359
rfoot -13.9739 -1.29815
rtoes 13.5395
lfemur -10.808 7.61615 -17.9217
ltibia 18.125
lfoot -11.3828 5.79898
ltoes -1.95663
12
root 0.555018 17.5476 -13.9126 6.2275 -1.87479 -1.47741
lowerback -3.43698 -0.669533 0.0796575
upperback 2.12267 -0.975306 1.98826
thorax 4.15074 -0.513133 1.9396
lowerneck -14.2507 0.276097 -2.50185
upperneck 21.3233 0.853912 0.548164
head 9.02625 0.253836 0.706598
rclavicle -1.31198e-014 1.43125e-014
rhumerus -25.7485 -14.4303 -78.4156
rradius 24.6824
rwrist 31.6472
rhand -19.344 -26.2278
rfingers 7.12502
rthumb 6.97307 -56.093
lclavicle -1.31198e-014 1.43125e-014
lhumerus -22.2605 -3.35728 87.7855
lradius 19.8247
lwrist 4.24247
lhand -23.7039 -3.33702
lfingers 7.12502
lthumb 2.76335 26.6248
rfemur -11.561 -3.73643 20.2755
rtibia 20.3669
rfoot -13.9688 -1.27588
rtoes 13.5432
lfemur -10.8228 7.62198 -17.9147
ltibia 18.145
lfoot -11.3925 5.8235
ltoes -1.94878
13
root 0.554581 17.5473 -13.9147 6.22912 -1.89533 -1.48289
lowerback -3.43573 -0.667285 0.0809888
upperback 2.12818 -0.972388 1.98627
thorax 4.15558 -0.511657 1.93701
lowerneck -14.2659 0.274439 -2.4916
upperneck 21.3782 0.849577 0.549252
head 9.04809 0.252178 0.705123
rclavicle -9.14409e-015 -1.27222e-014
rhumerus -25.7395 -14.4869 -78.3942
rradius 24.6585
rwrist 31.7013
rhand -19.3498 -26.2095
rfingers 7.12502
rthumb 6.96752 -56.0748
lclavicle -9.14409e-015 -1.27222e-014
lhumerus -22.2897 -3.34424 87.8013
lradius 19.8063
lwrist 4.20545
lhand -23.6793 -3.33193
lfingers 7.12502
lthumb 2.78704 26.6296
rfemur -11.5776 -3.74223 20.2828
rtibia 20.3745
rfoot -13.9634 -1.25052
rtoes 13.549
lfemur -10.8378 7.63031 -17.9091
ltibia 18.1631
lfoot -11.3984 5.84404
ltoes -1.94561
14
root 0.554182 17.5471 -13.9168 6.23037 -1.91485 -1.48918
lowerback -3.43374 -0.665323 0.0824766
upperback 2.13411 -0.969855 1.98425
thorax 4.16046 -0.510371 1.93426
lowerneck -14.2835 0.273459 -2.47767
upperneck 21.4366 0.846049 0.547448
head 9.07162 0.250849 0.702168
rclavicle -1.27719e-014 1.63003e-014
rhumerus -25.7295 -14.5444 -78.374
rradius 24.6349
rwrist 31.7516
rhand -19.344 -26.2011
rfingers 7.12502
rthumb 6.97309 -56.0662
lclavicle -1.27719e-014 1.63003e-014
lhumerus -22.3182 -3.3337 87.818
lradius 19.7891
lwrist 4.16576
lhand -23.6443 -3.31069
lfingers 7.12502
lthumb 2.82091 26.6504
rfemur -11.5923 -3.74704 20.2908
rtibia 20.3796
rfoot -13.9567 -1.22601
rtoes 13.557
lfemur -10.8525 7.63875 -17.9024
ltibia 18.1806
lfoot -11.4005 5.86264
ltoes -1.9529
